<mxfile host="Electron" modified="2023-09-23T09:16:28.628Z" agent="Mozilla/5.0 (Windows NT 10.0; Win64; x64) AppleWebKit/537.36 (KHTML, like Gecko) draw.io/21.7.5 Chrome/114.0.5735.289 Electron/25.8.1 Safari/537.36" etag="IjfYxqVvamzhMAtdMq-U" version="21.7.5" type="device">
  <diagram name="Page-1" id="Jhyz3X9VkCSBwdwAYLGG">
    <mxGraphModel dx="1173" dy="1703" grid="0" gridSize="10" guides="1" tooltips="1" connect="1" arrows="1" fold="1" page="1" pageScale="1" pageWidth="690" pageHeight="980" background="#ffffff" math="0" shadow="0">
      <root>
        <mxCell id="0" />
        <mxCell id="1" parent="0" />
        <mxCell id="qSncfqLn-qkaN4AIWGYy-15" value="" style="shape=table;startSize=0;container=1;collapsible=0;childLayout=tableLayout;strokeColor=#3399FF;" vertex="1" parent="1">
          <mxGeometry x="1812" y="-64" width="580" height="40" as="geometry" />
        </mxCell>
        <mxCell id="qSncfqLn-qkaN4AIWGYy-16" value="" style="shape=tableRow;horizontal=0;startSize=0;swimlaneHead=0;swimlaneBody=0;strokeColor=inherit;top=0;left=0;bottom=0;right=0;collapsible=0;dropTarget=0;fillColor=none;points=[[0,0.5],[1,0.5]];portConstraint=eastwest;" vertex="1" parent="qSncfqLn-qkaN4AIWGYy-15">
          <mxGeometry width="580" height="40" as="geometry" />
        </mxCell>
        <mxCell id="qSncfqLn-qkaN4AIWGYy-17" value="Std_id" style="shape=partialRectangle;html=1;whiteSpace=wrap;connectable=0;strokeColor=inherit;overflow=hidden;fillColor=none;top=0;left=0;bottom=0;right=0;pointerEvents=1;fontSize=15;" vertex="1" parent="qSncfqLn-qkaN4AIWGYy-16">
          <mxGeometry width="120" height="40" as="geometry">
            <mxRectangle width="120" height="40" as="alternateBounds" />
          </mxGeometry>
        </mxCell>
        <mxCell id="qSncfqLn-qkaN4AIWGYy-23" value="Name" style="shape=partialRectangle;html=1;whiteSpace=wrap;connectable=0;strokeColor=inherit;overflow=hidden;fillColor=none;top=0;left=0;bottom=0;right=0;pointerEvents=1;fontSize=15;" vertex="1" parent="qSncfqLn-qkaN4AIWGYy-16">
          <mxGeometry x="120" width="70" height="40" as="geometry">
            <mxRectangle width="70" height="40" as="alternateBounds" />
          </mxGeometry>
        </mxCell>
        <mxCell id="qSncfqLn-qkaN4AIWGYy-22" value="Email" style="shape=partialRectangle;html=1;whiteSpace=wrap;connectable=0;strokeColor=inherit;overflow=hidden;fillColor=none;top=0;left=0;bottom=0;right=0;pointerEvents=1;fontSize=15;" vertex="1" parent="qSncfqLn-qkaN4AIWGYy-16">
          <mxGeometry x="190" width="57" height="40" as="geometry">
            <mxRectangle width="57" height="40" as="alternateBounds" />
          </mxGeometry>
        </mxCell>
        <mxCell id="qSncfqLn-qkaN4AIWGYy-21" value="Contact" style="shape=partialRectangle;html=1;whiteSpace=wrap;connectable=0;strokeColor=inherit;overflow=hidden;fillColor=none;top=0;left=0;bottom=0;right=0;pointerEvents=1;fontSize=15;" vertex="1" parent="qSncfqLn-qkaN4AIWGYy-16">
          <mxGeometry x="247" width="75" height="40" as="geometry">
            <mxRectangle width="75" height="40" as="alternateBounds" />
          </mxGeometry>
        </mxCell>
        <mxCell id="qSncfqLn-qkaN4AIWGYy-20" value="Nic" style="shape=partialRectangle;html=1;whiteSpace=wrap;connectable=0;strokeColor=inherit;overflow=hidden;fillColor=none;top=0;left=0;bottom=0;right=0;pointerEvents=1;fontSize=15;" vertex="1" parent="qSncfqLn-qkaN4AIWGYy-16">
          <mxGeometry x="322" width="43" height="40" as="geometry">
            <mxRectangle width="43" height="40" as="alternateBounds" />
          </mxGeometry>
        </mxCell>
        <mxCell id="qSncfqLn-qkaN4AIWGYy-161" value="Status" style="shape=partialRectangle;html=1;whiteSpace=wrap;connectable=0;strokeColor=inherit;overflow=hidden;fillColor=none;top=0;left=0;bottom=0;right=0;pointerEvents=1;fontSize=15;" vertex="1" parent="qSncfqLn-qkaN4AIWGYy-16">
          <mxGeometry x="365" width="65" height="40" as="geometry">
            <mxRectangle width="65" height="40" as="alternateBounds" />
          </mxGeometry>
        </mxCell>
        <mxCell id="qSncfqLn-qkaN4AIWGYy-18" value="Dep_id" style="shape=partialRectangle;html=1;whiteSpace=wrap;connectable=0;strokeColor=inherit;overflow=hidden;fillColor=none;top=0;left=0;bottom=0;right=0;pointerEvents=1;fontSize=15;" vertex="1" parent="qSncfqLn-qkaN4AIWGYy-16">
          <mxGeometry x="430" width="75" height="40" as="geometry">
            <mxRectangle width="75" height="40" as="alternateBounds" />
          </mxGeometry>
        </mxCell>
        <mxCell id="qSncfqLn-qkaN4AIWGYy-19" value="&lt;font style=&quot;font-size: 15px;&quot;&gt;Crs_id&lt;/font&gt;" style="shape=partialRectangle;html=1;whiteSpace=wrap;connectable=0;strokeColor=inherit;overflow=hidden;fillColor=none;top=0;left=0;bottom=0;right=0;pointerEvents=1;" vertex="1" parent="qSncfqLn-qkaN4AIWGYy-16">
          <mxGeometry x="505" width="75" height="40" as="geometry">
            <mxRectangle width="75" height="40" as="alternateBounds" />
          </mxGeometry>
        </mxCell>
        <mxCell id="qSncfqLn-qkaN4AIWGYy-34" value="" style="line;strokeWidth=1;html=1;" vertex="1" parent="1">
          <mxGeometry x="1852" y="-34" width="50" height="10" as="geometry" />
        </mxCell>
        <mxCell id="qSncfqLn-qkaN4AIWGYy-36" value="" style="line;strokeWidth=1;html=1;" vertex="1" parent="1">
          <mxGeometry x="2262" y="-34" width="40" height="10" as="geometry" />
        </mxCell>
        <mxCell id="qSncfqLn-qkaN4AIWGYy-37" value="" style="line;strokeWidth=1;html=1;" vertex="1" parent="1">
          <mxGeometry x="2342" y="-34" width="30" height="10" as="geometry" />
        </mxCell>
        <mxCell id="qSncfqLn-qkaN4AIWGYy-38" value="" style="shape=table;startSize=0;container=1;collapsible=0;childLayout=tableLayout;strokeColor=#3399FF;" vertex="1" parent="1">
          <mxGeometry x="1855" y="-525" width="400" height="40" as="geometry" />
        </mxCell>
        <mxCell id="qSncfqLn-qkaN4AIWGYy-39" value="" style="shape=tableRow;horizontal=0;startSize=0;swimlaneHead=0;swimlaneBody=0;strokeColor=inherit;top=0;left=0;bottom=0;right=0;collapsible=0;dropTarget=0;fillColor=none;points=[[0,0.5],[1,0.5]];portConstraint=eastwest;" vertex="1" parent="qSncfqLn-qkaN4AIWGYy-38">
          <mxGeometry width="400" height="40" as="geometry" />
        </mxCell>
        <mxCell id="qSncfqLn-qkaN4AIWGYy-40" value="Lec_id" style="shape=partialRectangle;html=1;whiteSpace=wrap;connectable=0;strokeColor=inherit;overflow=hidden;fillColor=none;top=0;left=0;bottom=0;right=0;pointerEvents=1;fontSize=15;" vertex="1" parent="qSncfqLn-qkaN4AIWGYy-39">
          <mxGeometry width="90" height="40" as="geometry">
            <mxRectangle width="90" height="40" as="alternateBounds" />
          </mxGeometry>
        </mxCell>
        <mxCell id="qSncfqLn-qkaN4AIWGYy-41" value="Name" style="shape=partialRectangle;html=1;whiteSpace=wrap;connectable=0;strokeColor=inherit;overflow=hidden;fillColor=none;top=0;left=0;bottom=0;right=0;pointerEvents=1;fontSize=15;" vertex="1" parent="qSncfqLn-qkaN4AIWGYy-39">
          <mxGeometry x="90" width="60" height="40" as="geometry">
            <mxRectangle width="60" height="40" as="alternateBounds" />
          </mxGeometry>
        </mxCell>
        <mxCell id="qSncfqLn-qkaN4AIWGYy-42" value="Email" style="shape=partialRectangle;html=1;whiteSpace=wrap;connectable=0;strokeColor=inherit;overflow=hidden;fillColor=none;top=0;left=0;bottom=0;right=0;pointerEvents=1;fontSize=15;" vertex="1" parent="qSncfqLn-qkaN4AIWGYy-39">
          <mxGeometry x="150" width="80" height="40" as="geometry">
            <mxRectangle width="80" height="40" as="alternateBounds" />
          </mxGeometry>
        </mxCell>
        <mxCell id="qSncfqLn-qkaN4AIWGYy-43" value="Conatct" style="shape=partialRectangle;html=1;whiteSpace=wrap;connectable=0;strokeColor=inherit;overflow=hidden;fillColor=none;top=0;left=0;bottom=0;right=0;pointerEvents=1;fontSize=15;" vertex="1" parent="qSncfqLn-qkaN4AIWGYy-39">
          <mxGeometry x="230" width="70" height="40" as="geometry">
            <mxRectangle width="70" height="40" as="alternateBounds" />
          </mxGeometry>
        </mxCell>
        <mxCell id="qSncfqLn-qkaN4AIWGYy-46" value="&lt;font style=&quot;font-size: 15px;&quot;&gt;Dep_id&lt;/font&gt;" style="shape=partialRectangle;html=1;whiteSpace=wrap;connectable=0;strokeColor=inherit;overflow=hidden;fillColor=none;top=0;left=0;bottom=0;right=0;pointerEvents=1;" vertex="1" parent="qSncfqLn-qkaN4AIWGYy-39">
          <mxGeometry x="300" width="100" height="40" as="geometry">
            <mxRectangle width="100" height="40" as="alternateBounds" />
          </mxGeometry>
        </mxCell>
        <mxCell id="qSncfqLn-qkaN4AIWGYy-48" value="" style="shape=table;startSize=0;container=1;collapsible=0;childLayout=tableLayout;strokeColor=#3399FF;" vertex="1" parent="1">
          <mxGeometry x="1785" y="-325" width="541" height="40" as="geometry" />
        </mxCell>
        <mxCell id="qSncfqLn-qkaN4AIWGYy-49" value="" style="shape=tableRow;horizontal=0;startSize=0;swimlaneHead=0;swimlaneBody=0;strokeColor=inherit;top=0;left=0;bottom=0;right=0;collapsible=0;dropTarget=0;fillColor=none;points=[[0,0.5],[1,0.5]];portConstraint=eastwest;" vertex="1" parent="qSncfqLn-qkaN4AIWGYy-48">
          <mxGeometry width="541" height="40" as="geometry" />
        </mxCell>
        <mxCell id="qSncfqLn-qkaN4AIWGYy-50" value="Crs_id" style="shape=partialRectangle;html=1;whiteSpace=wrap;connectable=0;strokeColor=inherit;overflow=hidden;fillColor=none;top=0;left=0;bottom=0;right=0;pointerEvents=1;fontSize=15;" vertex="1" parent="qSncfqLn-qkaN4AIWGYy-49">
          <mxGeometry width="160" height="40" as="geometry">
            <mxRectangle width="160" height="40" as="alternateBounds" />
          </mxGeometry>
        </mxCell>
        <mxCell id="qSncfqLn-qkaN4AIWGYy-51" value="Name" style="shape=partialRectangle;html=1;whiteSpace=wrap;connectable=0;strokeColor=inherit;overflow=hidden;fillColor=none;top=0;left=0;bottom=0;right=0;pointerEvents=1;fontSize=15;" vertex="1" parent="qSncfqLn-qkaN4AIWGYy-49">
          <mxGeometry x="160" width="80" height="40" as="geometry">
            <mxRectangle width="80" height="40" as="alternateBounds" />
          </mxGeometry>
        </mxCell>
        <mxCell id="qSncfqLn-qkaN4AIWGYy-52" value="Type" style="shape=partialRectangle;html=1;whiteSpace=wrap;connectable=0;strokeColor=inherit;overflow=hidden;fillColor=none;top=0;left=0;bottom=0;right=0;pointerEvents=1;fontSize=15;" vertex="1" parent="qSncfqLn-qkaN4AIWGYy-49">
          <mxGeometry x="240" width="70" height="40" as="geometry">
            <mxRectangle width="70" height="40" as="alternateBounds" />
          </mxGeometry>
        </mxCell>
        <mxCell id="qSncfqLn-qkaN4AIWGYy-53" value="Credit" style="shape=partialRectangle;html=1;whiteSpace=wrap;connectable=0;strokeColor=inherit;overflow=hidden;fillColor=none;top=0;left=0;bottom=0;right=0;pointerEvents=1;fontSize=15;" vertex="1" parent="qSncfqLn-qkaN4AIWGYy-49">
          <mxGeometry x="310" width="69" height="40" as="geometry">
            <mxRectangle width="69" height="40" as="alternateBounds" />
          </mxGeometry>
        </mxCell>
        <mxCell id="qSncfqLn-qkaN4AIWGYy-176" value="Dep_id" style="shape=partialRectangle;html=1;whiteSpace=wrap;connectable=0;strokeColor=inherit;overflow=hidden;fillColor=none;top=0;left=0;bottom=0;right=0;pointerEvents=1;fontSize=15;" vertex="1" parent="qSncfqLn-qkaN4AIWGYy-49">
          <mxGeometry x="379" width="82" height="40" as="geometry">
            <mxRectangle width="82" height="40" as="alternateBounds" />
          </mxGeometry>
        </mxCell>
        <mxCell id="qSncfqLn-qkaN4AIWGYy-54" value="&lt;span style=&quot;font-size: 15px;&quot;&gt;Lec_id&lt;/span&gt;" style="shape=partialRectangle;html=1;whiteSpace=wrap;connectable=0;strokeColor=inherit;overflow=hidden;fillColor=none;top=0;left=0;bottom=0;right=0;pointerEvents=1;" vertex="1" parent="qSncfqLn-qkaN4AIWGYy-49">
          <mxGeometry x="461" width="80" height="40" as="geometry">
            <mxRectangle width="80" height="40" as="alternateBounds" />
          </mxGeometry>
        </mxCell>
        <mxCell id="qSncfqLn-qkaN4AIWGYy-56" value="" style="shape=table;startSize=0;container=1;collapsible=0;childLayout=tableLayout;strokeColor=#3399FF;" vertex="1" parent="1">
          <mxGeometry x="1855" y="-725" width="259.7222222222217" height="40" as="geometry" />
        </mxCell>
        <mxCell id="qSncfqLn-qkaN4AIWGYy-57" value="" style="shape=tableRow;horizontal=0;startSize=0;swimlaneHead=0;swimlaneBody=0;strokeColor=inherit;top=0;left=0;bottom=0;right=0;collapsible=0;dropTarget=0;fillColor=none;points=[[0,0.5],[1,0.5]];portConstraint=eastwest;" vertex="1" parent="qSncfqLn-qkaN4AIWGYy-56">
          <mxGeometry width="259.7222222222217" height="40" as="geometry" />
        </mxCell>
        <mxCell id="qSncfqLn-qkaN4AIWGYy-58" value="Name" style="shape=partialRectangle;html=1;whiteSpace=wrap;connectable=0;strokeColor=inherit;overflow=hidden;fillColor=none;top=0;left=0;bottom=0;right=0;pointerEvents=1;fontSize=15;" vertex="1" parent="qSncfqLn-qkaN4AIWGYy-57">
          <mxGeometry width="90" height="40" as="geometry">
            <mxRectangle width="90" height="40" as="alternateBounds" />
          </mxGeometry>
        </mxCell>
        <mxCell id="qSncfqLn-qkaN4AIWGYy-59" value="Lec_id" style="shape=partialRectangle;html=1;whiteSpace=wrap;connectable=0;strokeColor=inherit;overflow=hidden;fillColor=none;top=0;left=0;bottom=0;right=0;pointerEvents=1;fontSize=15;" vertex="1" parent="qSncfqLn-qkaN4AIWGYy-57">
          <mxGeometry x="90" width="80" height="40" as="geometry">
            <mxRectangle width="80" height="40" as="alternateBounds" />
          </mxGeometry>
        </mxCell>
        <mxCell id="qSncfqLn-qkaN4AIWGYy-60" value="Dep_id" style="shape=partialRectangle;html=1;whiteSpace=wrap;connectable=0;strokeColor=inherit;overflow=hidden;fillColor=none;top=0;left=0;bottom=0;right=0;pointerEvents=1;fontSize=15;" vertex="1" parent="qSncfqLn-qkaN4AIWGYy-57">
          <mxGeometry x="170" width="90" height="40" as="geometry">
            <mxRectangle width="90" height="40" as="alternateBounds" />
          </mxGeometry>
        </mxCell>
        <mxCell id="qSncfqLn-qkaN4AIWGYy-64" value="" style="line;strokeWidth=1;html=1;" vertex="1" parent="1">
          <mxGeometry x="1955" y="-695" width="50" height="10" as="geometry" />
        </mxCell>
        <mxCell id="qSncfqLn-qkaN4AIWGYy-65" value="" style="line;strokeWidth=1;html=1;" vertex="1" parent="1">
          <mxGeometry x="1875" y="-495" width="50" height="10" as="geometry" />
        </mxCell>
        <mxCell id="qSncfqLn-qkaN4AIWGYy-66" value="" style="line;strokeWidth=1;html=1;" vertex="1" parent="1">
          <mxGeometry x="2178" y="-495" width="50" height="10" as="geometry" />
        </mxCell>
        <mxCell id="qSncfqLn-qkaN4AIWGYy-67" value="" style="line;strokeWidth=1;html=1;" vertex="1" parent="1">
          <mxGeometry x="1845" y="-295" width="50" height="10" as="geometry" />
        </mxCell>
        <mxCell id="qSncfqLn-qkaN4AIWGYy-68" value="" style="line;strokeWidth=1;html=1;" vertex="1" parent="1">
          <mxGeometry x="2187" y="-295" width="32" height="10" as="geometry" />
        </mxCell>
        <mxCell id="qSncfqLn-qkaN4AIWGYy-69" value="" style="shape=table;startSize=0;container=1;collapsible=0;childLayout=tableLayout;strokeColor=#3399FF;" vertex="1" parent="1">
          <mxGeometry x="425" y="515" width="310" height="40" as="geometry" />
        </mxCell>
        <mxCell id="qSncfqLn-qkaN4AIWGYy-70" value="" style="shape=tableRow;horizontal=0;startSize=0;swimlaneHead=0;swimlaneBody=0;strokeColor=inherit;top=0;left=0;bottom=0;right=0;collapsible=0;dropTarget=0;fillColor=none;points=[[0,0.5],[1,0.5]];portConstraint=eastwest;" vertex="1" parent="qSncfqLn-qkaN4AIWGYy-69">
          <mxGeometry width="310" height="40" as="geometry" />
        </mxCell>
        <mxCell id="qSncfqLn-qkaN4AIWGYy-71" value="End_id" style="shape=partialRectangle;html=1;whiteSpace=wrap;connectable=0;strokeColor=inherit;overflow=hidden;fillColor=none;top=0;left=0;bottom=0;right=0;pointerEvents=1;fontSize=15;" vertex="1" parent="qSncfqLn-qkaN4AIWGYy-70">
          <mxGeometry width="90" height="40" as="geometry">
            <mxRectangle width="90" height="40" as="alternateBounds" />
          </mxGeometry>
        </mxCell>
        <mxCell id="qSncfqLn-qkaN4AIWGYy-72" value="Crs_id" style="shape=partialRectangle;html=1;whiteSpace=wrap;connectable=0;strokeColor=inherit;overflow=hidden;fillColor=none;top=0;left=0;bottom=0;right=0;pointerEvents=1;fontSize=15;" vertex="1" parent="qSncfqLn-qkaN4AIWGYy-70">
          <mxGeometry x="90" width="70" height="40" as="geometry">
            <mxRectangle width="70" height="40" as="alternateBounds" />
          </mxGeometry>
        </mxCell>
        <mxCell id="qSncfqLn-qkaN4AIWGYy-73" value="End_mark" style="shape=partialRectangle;html=1;whiteSpace=wrap;connectable=0;strokeColor=inherit;overflow=hidden;fillColor=none;top=0;left=0;bottom=0;right=0;pointerEvents=1;fontSize=15;" vertex="1" parent="qSncfqLn-qkaN4AIWGYy-70">
          <mxGeometry x="160" width="80" height="40" as="geometry">
            <mxRectangle width="80" height="40" as="alternateBounds" />
          </mxGeometry>
        </mxCell>
        <mxCell id="qSncfqLn-qkaN4AIWGYy-75" value="&lt;font style=&quot;font-size: 15px;&quot;&gt;Std_id&lt;/font&gt;" style="shape=partialRectangle;html=1;whiteSpace=wrap;connectable=0;strokeColor=inherit;overflow=hidden;fillColor=none;top=0;left=0;bottom=0;right=0;pointerEvents=1;" vertex="1" parent="qSncfqLn-qkaN4AIWGYy-70">
          <mxGeometry x="240" width="70" height="40" as="geometry">
            <mxRectangle width="70" height="40" as="alternateBounds" />
          </mxGeometry>
        </mxCell>
        <mxCell id="qSncfqLn-qkaN4AIWGYy-77" value="" style="line;strokeWidth=1;html=1;" vertex="1" parent="1">
          <mxGeometry x="445" y="545" width="50" height="10" as="geometry" />
        </mxCell>
        <mxCell id="qSncfqLn-qkaN4AIWGYy-78" value="" style="line;strokeWidth=1;html=1;" vertex="1" parent="1">
          <mxGeometry x="675" y="545" width="50" height="10" as="geometry" />
        </mxCell>
        <mxCell id="qSncfqLn-qkaN4AIWGYy-79" value="" style="line;strokeWidth=1;html=1;" vertex="1" parent="1">
          <mxGeometry x="535" y="545" width="40" height="10" as="geometry" />
        </mxCell>
        <mxCell id="qSncfqLn-qkaN4AIWGYy-81" value="" style="shape=table;startSize=0;container=1;collapsible=0;childLayout=tableLayout;strokeColor=#3399FF;" vertex="1" parent="1">
          <mxGeometry x="425" y="315" width="310" height="40.16666666666657" as="geometry" />
        </mxCell>
        <mxCell id="qSncfqLn-qkaN4AIWGYy-82" value="" style="shape=tableRow;horizontal=0;startSize=0;swimlaneHead=0;swimlaneBody=0;strokeColor=inherit;top=0;left=0;bottom=0;right=0;collapsible=0;dropTarget=0;fillColor=none;points=[[0,0.5],[1,0.5]];portConstraint=eastwest;" vertex="1" parent="qSncfqLn-qkaN4AIWGYy-81">
          <mxGeometry width="310" height="40" as="geometry" />
        </mxCell>
        <mxCell id="qSncfqLn-qkaN4AIWGYy-83" value="Mid_id" style="shape=partialRectangle;html=1;whiteSpace=wrap;connectable=0;strokeColor=inherit;overflow=hidden;fillColor=none;top=0;left=0;bottom=0;right=0;pointerEvents=1;fontSize=15;" vertex="1" parent="qSncfqLn-qkaN4AIWGYy-82">
          <mxGeometry width="90" height="40" as="geometry">
            <mxRectangle width="90" height="40" as="alternateBounds" />
          </mxGeometry>
        </mxCell>
        <mxCell id="qSncfqLn-qkaN4AIWGYy-84" value="Crs_id" style="shape=partialRectangle;html=1;whiteSpace=wrap;connectable=0;strokeColor=inherit;overflow=hidden;fillColor=none;top=0;left=0;bottom=0;right=0;pointerEvents=1;fontSize=15;" vertex="1" parent="qSncfqLn-qkaN4AIWGYy-82">
          <mxGeometry x="90" width="70" height="40" as="geometry">
            <mxRectangle width="70" height="40" as="alternateBounds" />
          </mxGeometry>
        </mxCell>
        <mxCell id="qSncfqLn-qkaN4AIWGYy-85" value="Mid_mark" style="shape=partialRectangle;html=1;whiteSpace=wrap;connectable=0;strokeColor=inherit;overflow=hidden;fillColor=none;top=0;left=0;bottom=0;right=0;pointerEvents=1;fontSize=15;" vertex="1" parent="qSncfqLn-qkaN4AIWGYy-82">
          <mxGeometry x="160" width="80" height="40" as="geometry">
            <mxRectangle width="80" height="40" as="alternateBounds" />
          </mxGeometry>
        </mxCell>
        <mxCell id="qSncfqLn-qkaN4AIWGYy-86" value="&lt;font style=&quot;font-size: 15px;&quot;&gt;Std_id&lt;/font&gt;" style="shape=partialRectangle;html=1;whiteSpace=wrap;connectable=0;strokeColor=inherit;overflow=hidden;fillColor=none;top=0;left=0;bottom=0;right=0;pointerEvents=1;" vertex="1" parent="qSncfqLn-qkaN4AIWGYy-82">
          <mxGeometry x="240" width="70" height="40" as="geometry">
            <mxRectangle width="70" height="40" as="alternateBounds" />
          </mxGeometry>
        </mxCell>
        <mxCell id="qSncfqLn-qkaN4AIWGYy-88" value="" style="line;strokeWidth=1;html=1;" vertex="1" parent="1">
          <mxGeometry x="445" y="345" width="50" height="10" as="geometry" />
        </mxCell>
        <mxCell id="qSncfqLn-qkaN4AIWGYy-89" value="" style="line;strokeWidth=1;html=1;" vertex="1" parent="1">
          <mxGeometry x="675" y="345" width="50" height="10" as="geometry" />
        </mxCell>
        <mxCell id="qSncfqLn-qkaN4AIWGYy-90" value="" style="line;strokeWidth=1;html=1;" vertex="1" parent="1">
          <mxGeometry x="535" y="345" width="40" height="10" as="geometry" />
        </mxCell>
        <mxCell id="qSncfqLn-qkaN4AIWGYy-91" value="" style="shape=table;startSize=0;container=1;collapsible=0;childLayout=tableLayout;strokeColor=#3399FF;" vertex="1" parent="1">
          <mxGeometry x="425" y="115" width="380" height="40" as="geometry" />
        </mxCell>
        <mxCell id="qSncfqLn-qkaN4AIWGYy-92" value="" style="shape=tableRow;horizontal=0;startSize=0;swimlaneHead=0;swimlaneBody=0;strokeColor=inherit;top=0;left=0;bottom=0;right=0;collapsible=0;dropTarget=0;fillColor=none;points=[[0,0.5],[1,0.5]];portConstraint=eastwest;" vertex="1" parent="qSncfqLn-qkaN4AIWGYy-91">
          <mxGeometry width="380" height="40" as="geometry" />
        </mxCell>
        <mxCell id="qSncfqLn-qkaN4AIWGYy-93" value="Qiz_id" style="shape=partialRectangle;html=1;whiteSpace=wrap;connectable=0;strokeColor=inherit;overflow=hidden;fillColor=none;top=0;left=0;bottom=0;right=0;pointerEvents=1;fontSize=15;" vertex="1" parent="qSncfqLn-qkaN4AIWGYy-92">
          <mxGeometry width="90" height="40" as="geometry">
            <mxRectangle width="90" height="40" as="alternateBounds" />
          </mxGeometry>
        </mxCell>
        <mxCell id="qSncfqLn-qkaN4AIWGYy-94" value="Crs_id" style="shape=partialRectangle;html=1;whiteSpace=wrap;connectable=0;strokeColor=inherit;overflow=hidden;fillColor=none;top=0;left=0;bottom=0;right=0;pointerEvents=1;fontSize=15;" vertex="1" parent="qSncfqLn-qkaN4AIWGYy-92">
          <mxGeometry x="90" width="70" height="40" as="geometry">
            <mxRectangle width="70" height="40" as="alternateBounds" />
          </mxGeometry>
        </mxCell>
        <mxCell id="qSncfqLn-qkaN4AIWGYy-101" value="Qiz_no" style="shape=partialRectangle;html=1;whiteSpace=wrap;connectable=0;strokeColor=inherit;overflow=hidden;fillColor=none;top=0;left=0;bottom=0;right=0;pointerEvents=1;fontSize=15;" vertex="1" parent="qSncfqLn-qkaN4AIWGYy-92">
          <mxGeometry x="160" width="70" height="40" as="geometry">
            <mxRectangle width="70" height="40" as="alternateBounds" />
          </mxGeometry>
        </mxCell>
        <mxCell id="qSncfqLn-qkaN4AIWGYy-95" value="Qiz_mark" style="shape=partialRectangle;html=1;whiteSpace=wrap;connectable=0;strokeColor=inherit;overflow=hidden;fillColor=none;top=0;left=0;bottom=0;right=0;pointerEvents=1;fontSize=15;" vertex="1" parent="qSncfqLn-qkaN4AIWGYy-92">
          <mxGeometry x="230" width="80" height="40" as="geometry">
            <mxRectangle width="80" height="40" as="alternateBounds" />
          </mxGeometry>
        </mxCell>
        <mxCell id="qSncfqLn-qkaN4AIWGYy-96" value="&lt;font style=&quot;font-size: 15px;&quot;&gt;Std_id&lt;/font&gt;" style="shape=partialRectangle;html=1;whiteSpace=wrap;connectable=0;strokeColor=inherit;overflow=hidden;fillColor=none;top=0;left=0;bottom=0;right=0;pointerEvents=1;" vertex="1" parent="qSncfqLn-qkaN4AIWGYy-92">
          <mxGeometry x="310" width="70" height="40" as="geometry">
            <mxRectangle width="70" height="40" as="alternateBounds" />
          </mxGeometry>
        </mxCell>
        <mxCell id="qSncfqLn-qkaN4AIWGYy-98" value="" style="line;strokeWidth=1;html=1;" vertex="1" parent="1">
          <mxGeometry x="445" y="145" width="50" height="10" as="geometry" />
        </mxCell>
        <mxCell id="qSncfqLn-qkaN4AIWGYy-99" value="" style="line;strokeWidth=1;html=1;" vertex="1" parent="1">
          <mxGeometry x="745" y="145" width="50" height="10" as="geometry" />
        </mxCell>
        <mxCell id="qSncfqLn-qkaN4AIWGYy-100" value="" style="line;strokeWidth=1;html=1;" vertex="1" parent="1">
          <mxGeometry x="535" y="145" width="40" height="10" as="geometry" />
        </mxCell>
        <mxCell id="qSncfqLn-qkaN4AIWGYy-110" value="" style="shape=table;startSize=0;container=1;collapsible=0;childLayout=tableLayout;strokeColor=#3399FF;" vertex="1" parent="1">
          <mxGeometry x="425" y="-85" width="380" height="40" as="geometry" />
        </mxCell>
        <mxCell id="qSncfqLn-qkaN4AIWGYy-111" value="" style="shape=tableRow;horizontal=0;startSize=0;swimlaneHead=0;swimlaneBody=0;strokeColor=inherit;top=0;left=0;bottom=0;right=0;collapsible=0;dropTarget=0;fillColor=none;points=[[0,0.5],[1,0.5]];portConstraint=eastwest;" vertex="1" parent="qSncfqLn-qkaN4AIWGYy-110">
          <mxGeometry width="380" height="40" as="geometry" />
        </mxCell>
        <mxCell id="qSncfqLn-qkaN4AIWGYy-112" value="Asm_id" style="shape=partialRectangle;html=1;whiteSpace=wrap;connectable=0;strokeColor=inherit;overflow=hidden;fillColor=none;top=0;left=0;bottom=0;right=0;pointerEvents=1;fontSize=15;" vertex="1" parent="qSncfqLn-qkaN4AIWGYy-111">
          <mxGeometry width="90" height="40" as="geometry">
            <mxRectangle width="90" height="40" as="alternateBounds" />
          </mxGeometry>
        </mxCell>
        <mxCell id="qSncfqLn-qkaN4AIWGYy-113" value="Crs_id" style="shape=partialRectangle;html=1;whiteSpace=wrap;connectable=0;strokeColor=inherit;overflow=hidden;fillColor=none;top=0;left=0;bottom=0;right=0;pointerEvents=1;fontSize=15;" vertex="1" parent="qSncfqLn-qkaN4AIWGYy-111">
          <mxGeometry x="90" width="70" height="40" as="geometry">
            <mxRectangle width="70" height="40" as="alternateBounds" />
          </mxGeometry>
        </mxCell>
        <mxCell id="qSncfqLn-qkaN4AIWGYy-114" value="Asm_no" style="shape=partialRectangle;html=1;whiteSpace=wrap;connectable=0;strokeColor=inherit;overflow=hidden;fillColor=none;top=0;left=0;bottom=0;right=0;pointerEvents=1;fontSize=15;" vertex="1" parent="qSncfqLn-qkaN4AIWGYy-111">
          <mxGeometry x="160" width="70" height="40" as="geometry">
            <mxRectangle width="70" height="40" as="alternateBounds" />
          </mxGeometry>
        </mxCell>
        <mxCell id="qSncfqLn-qkaN4AIWGYy-115" value="Asm_mark" style="shape=partialRectangle;html=1;whiteSpace=wrap;connectable=0;strokeColor=inherit;overflow=hidden;fillColor=none;top=0;left=0;bottom=0;right=0;pointerEvents=1;fontSize=15;" vertex="1" parent="qSncfqLn-qkaN4AIWGYy-111">
          <mxGeometry x="230" width="80" height="40" as="geometry">
            <mxRectangle width="80" height="40" as="alternateBounds" />
          </mxGeometry>
        </mxCell>
        <mxCell id="qSncfqLn-qkaN4AIWGYy-116" value="&lt;font style=&quot;font-size: 15px;&quot;&gt;Std_id&lt;/font&gt;" style="shape=partialRectangle;html=1;whiteSpace=wrap;connectable=0;strokeColor=inherit;overflow=hidden;fillColor=none;top=0;left=0;bottom=0;right=0;pointerEvents=1;" vertex="1" parent="qSncfqLn-qkaN4AIWGYy-111">
          <mxGeometry x="310" width="70" height="40" as="geometry">
            <mxRectangle width="70" height="40" as="alternateBounds" />
          </mxGeometry>
        </mxCell>
        <mxCell id="qSncfqLn-qkaN4AIWGYy-118" value="" style="line;strokeWidth=1;html=1;" vertex="1" parent="1">
          <mxGeometry x="445" y="-55" width="50" height="10" as="geometry" />
        </mxCell>
        <mxCell id="qSncfqLn-qkaN4AIWGYy-119" value="" style="line;strokeWidth=1;html=1;" vertex="1" parent="1">
          <mxGeometry x="745" y="-55" width="50" height="10" as="geometry" />
        </mxCell>
        <mxCell id="qSncfqLn-qkaN4AIWGYy-120" value="" style="line;strokeWidth=1;html=1;" vertex="1" parent="1">
          <mxGeometry x="535" y="-55" width="40" height="10" as="geometry" />
        </mxCell>
        <mxCell id="qSncfqLn-qkaN4AIWGYy-121" value="" style="shape=table;startSize=0;container=1;collapsible=0;childLayout=tableLayout;strokeColor=#3399FF;" vertex="1" parent="1">
          <mxGeometry x="1055" y="50" width="560" height="40" as="geometry" />
        </mxCell>
        <mxCell id="qSncfqLn-qkaN4AIWGYy-122" value="" style="shape=tableRow;horizontal=0;startSize=0;swimlaneHead=0;swimlaneBody=0;strokeColor=inherit;top=0;left=0;bottom=0;right=0;collapsible=0;dropTarget=0;fillColor=none;points=[[0,0.5],[1,0.5]];portConstraint=eastwest;" vertex="1" parent="qSncfqLn-qkaN4AIWGYy-121">
          <mxGeometry width="560" height="40" as="geometry" />
        </mxCell>
        <mxCell id="qSncfqLn-qkaN4AIWGYy-123" value="M_id" style="shape=partialRectangle;html=1;whiteSpace=wrap;connectable=0;strokeColor=inherit;overflow=hidden;fillColor=none;top=0;left=0;bottom=0;right=0;pointerEvents=1;fontSize=15;" vertex="1" parent="qSncfqLn-qkaN4AIWGYy-122">
          <mxGeometry width="80" height="40" as="geometry">
            <mxRectangle width="80" height="40" as="alternateBounds" />
          </mxGeometry>
        </mxCell>
        <mxCell id="qSncfqLn-qkaN4AIWGYy-124" value="Ca_status" style="shape=partialRectangle;html=1;whiteSpace=wrap;connectable=0;strokeColor=inherit;overflow=hidden;fillColor=none;top=0;left=0;bottom=0;right=0;pointerEvents=1;fontSize=15;" vertex="1" parent="qSncfqLn-qkaN4AIWGYy-122">
          <mxGeometry x="80" width="110" height="40" as="geometry">
            <mxRectangle width="110" height="40" as="alternateBounds" />
          </mxGeometry>
        </mxCell>
        <mxCell id="qSncfqLn-qkaN4AIWGYy-125" value="Total_mark" style="shape=partialRectangle;html=1;whiteSpace=wrap;connectable=0;strokeColor=inherit;overflow=hidden;fillColor=none;top=0;left=0;bottom=0;right=0;pointerEvents=1;fontSize=15;" vertex="1" parent="qSncfqLn-qkaN4AIWGYy-122">
          <mxGeometry x="190" width="96" height="40" as="geometry">
            <mxRectangle width="96" height="40" as="alternateBounds" />
          </mxGeometry>
        </mxCell>
        <mxCell id="qSncfqLn-qkaN4AIWGYy-134" value="Grade" style="shape=partialRectangle;html=1;whiteSpace=wrap;connectable=0;strokeColor=inherit;overflow=hidden;fillColor=none;top=0;left=0;bottom=0;right=0;pointerEvents=1;fontSize=15;" vertex="1" parent="qSncfqLn-qkaN4AIWGYy-122">
          <mxGeometry x="286" width="87" height="40" as="geometry">
            <mxRectangle width="87" height="40" as="alternateBounds" />
          </mxGeometry>
        </mxCell>
        <mxCell id="qSncfqLn-qkaN4AIWGYy-126" value="Std_id" style="shape=partialRectangle;html=1;whiteSpace=wrap;connectable=0;strokeColor=inherit;overflow=hidden;fillColor=none;top=0;left=0;bottom=0;right=0;pointerEvents=1;fontSize=15;" vertex="1" parent="qSncfqLn-qkaN4AIWGYy-122">
          <mxGeometry x="373" width="100" height="40" as="geometry">
            <mxRectangle width="100" height="40" as="alternateBounds" />
          </mxGeometry>
        </mxCell>
        <mxCell id="qSncfqLn-qkaN4AIWGYy-127" value="&lt;font style=&quot;font-size: 15px;&quot;&gt;Crs_id&lt;/font&gt;" style="shape=partialRectangle;html=1;whiteSpace=wrap;connectable=0;strokeColor=inherit;overflow=hidden;fillColor=none;top=0;left=0;bottom=0;right=0;pointerEvents=1;" vertex="1" parent="qSncfqLn-qkaN4AIWGYy-122">
          <mxGeometry x="473" width="87" height="40" as="geometry">
            <mxRectangle width="87" height="40" as="alternateBounds" />
          </mxGeometry>
        </mxCell>
        <mxCell id="qSncfqLn-qkaN4AIWGYy-129" value="" style="line;strokeWidth=1;html=1;" vertex="1" parent="1">
          <mxGeometry x="1075" y="80" width="40" height="10" as="geometry" />
        </mxCell>
        <mxCell id="qSncfqLn-qkaN4AIWGYy-130" value="" style="line;strokeWidth=1;html=1;" vertex="1" parent="1">
          <mxGeometry x="1455" y="80" width="50" height="10" as="geometry" />
        </mxCell>
        <mxCell id="qSncfqLn-qkaN4AIWGYy-131" value="" style="line;strokeWidth=1;html=1;" vertex="1" parent="1">
          <mxGeometry x="1555" y="80" width="30" height="10" as="geometry" />
        </mxCell>
        <mxCell id="qSncfqLn-qkaN4AIWGYy-135" value="" style="shape=table;startSize=0;container=1;collapsible=0;childLayout=tableLayout;strokeColor=#3399FF;" vertex="1" parent="1">
          <mxGeometry x="1175" y="450" width="460" height="40" as="geometry" />
        </mxCell>
        <mxCell id="qSncfqLn-qkaN4AIWGYy-136" value="" style="shape=tableRow;horizontal=0;startSize=0;swimlaneHead=0;swimlaneBody=0;strokeColor=inherit;top=0;left=0;bottom=0;right=0;collapsible=0;dropTarget=0;fillColor=none;points=[[0,0.5],[1,0.5]];portConstraint=eastwest;" vertex="1" parent="qSncfqLn-qkaN4AIWGYy-135">
          <mxGeometry width="460" height="40" as="geometry" />
        </mxCell>
        <mxCell id="qSncfqLn-qkaN4AIWGYy-137" value="Gpa_id" style="shape=partialRectangle;html=1;whiteSpace=wrap;connectable=0;strokeColor=inherit;overflow=hidden;fillColor=none;top=0;left=0;bottom=0;right=0;pointerEvents=1;fontSize=15;" vertex="1" parent="qSncfqLn-qkaN4AIWGYy-136">
          <mxGeometry width="80" height="40" as="geometry">
            <mxRectangle width="80" height="40" as="alternateBounds" />
          </mxGeometry>
        </mxCell>
        <mxCell id="qSncfqLn-qkaN4AIWGYy-138" value="M_id" style="shape=partialRectangle;html=1;whiteSpace=wrap;connectable=0;strokeColor=inherit;overflow=hidden;fillColor=none;top=0;left=0;bottom=0;right=0;pointerEvents=1;fontSize=15;" vertex="1" parent="qSncfqLn-qkaN4AIWGYy-136">
          <mxGeometry x="80" width="110" height="40" as="geometry">
            <mxRectangle width="110" height="40" as="alternateBounds" />
          </mxGeometry>
        </mxCell>
        <mxCell id="qSncfqLn-qkaN4AIWGYy-139" value="Cgpa" style="shape=partialRectangle;html=1;whiteSpace=wrap;connectable=0;strokeColor=inherit;overflow=hidden;fillColor=none;top=0;left=0;bottom=0;right=0;pointerEvents=1;fontSize=15;" vertex="1" parent="qSncfqLn-qkaN4AIWGYy-136">
          <mxGeometry x="190" width="96" height="40" as="geometry">
            <mxRectangle width="96" height="40" as="alternateBounds" />
          </mxGeometry>
        </mxCell>
        <mxCell id="qSncfqLn-qkaN4AIWGYy-140" value="Sgpa" style="shape=partialRectangle;html=1;whiteSpace=wrap;connectable=0;strokeColor=inherit;overflow=hidden;fillColor=none;top=0;left=0;bottom=0;right=0;pointerEvents=1;fontSize=15;" vertex="1" parent="qSncfqLn-qkaN4AIWGYy-136">
          <mxGeometry x="286" width="87" height="40" as="geometry">
            <mxRectangle width="87" height="40" as="alternateBounds" />
          </mxGeometry>
        </mxCell>
        <mxCell id="qSncfqLn-qkaN4AIWGYy-142" value="&lt;font style=&quot;font-size: 15px;&quot;&gt;Std_id&lt;/font&gt;" style="shape=partialRectangle;html=1;whiteSpace=wrap;connectable=0;strokeColor=inherit;overflow=hidden;fillColor=none;top=0;left=0;bottom=0;right=0;pointerEvents=1;" vertex="1" parent="qSncfqLn-qkaN4AIWGYy-136">
          <mxGeometry x="373" width="87" height="40" as="geometry">
            <mxRectangle width="87" height="40" as="alternateBounds" />
          </mxGeometry>
        </mxCell>
        <mxCell id="qSncfqLn-qkaN4AIWGYy-144" value="" style="line;strokeWidth=1;html=1;" vertex="1" parent="1">
          <mxGeometry x="1195" y="480" width="40" height="10" as="geometry" />
        </mxCell>
        <mxCell id="qSncfqLn-qkaN4AIWGYy-145" value="" style="line;strokeWidth=1;html=1;" vertex="1" parent="1">
          <mxGeometry x="1565" y="480" width="50" height="10" as="geometry" />
        </mxCell>
        <mxCell id="qSncfqLn-qkaN4AIWGYy-146" value="" style="line;strokeWidth=1;html=1;" vertex="1" parent="1">
          <mxGeometry x="1295" y="480" width="30" height="10" as="geometry" />
        </mxCell>
        <mxCell id="qSncfqLn-qkaN4AIWGYy-147" value="" style="shape=table;startSize=0;container=1;collapsible=0;childLayout=tableLayout;strokeColor=#3399FF;" vertex="1" parent="1">
          <mxGeometry x="1175" y="225" width="451" height="40" as="geometry" />
        </mxCell>
        <mxCell id="qSncfqLn-qkaN4AIWGYy-148" value="" style="shape=tableRow;horizontal=0;startSize=0;swimlaneHead=0;swimlaneBody=0;strokeColor=inherit;top=0;left=0;bottom=0;right=0;collapsible=0;dropTarget=0;fillColor=none;points=[[0,0.5],[1,0.5]];portConstraint=eastwest;" vertex="1" parent="qSncfqLn-qkaN4AIWGYy-147">
          <mxGeometry width="451" height="40" as="geometry" />
        </mxCell>
        <mxCell id="qSncfqLn-qkaN4AIWGYy-149" value="El_id" style="shape=partialRectangle;html=1;whiteSpace=wrap;connectable=0;strokeColor=inherit;overflow=hidden;fillColor=none;top=0;left=0;bottom=0;right=0;pointerEvents=1;fontSize=15;" vertex="1" parent="qSncfqLn-qkaN4AIWGYy-148">
          <mxGeometry width="80" height="40" as="geometry">
            <mxRectangle width="80" height="40" as="alternateBounds" />
          </mxGeometry>
        </mxCell>
        <mxCell id="qSncfqLn-qkaN4AIWGYy-150" value="Eligibility" style="shape=partialRectangle;html=1;whiteSpace=wrap;connectable=0;strokeColor=inherit;overflow=hidden;fillColor=none;top=0;left=0;bottom=0;right=0;pointerEvents=1;fontSize=15;" vertex="1" parent="qSncfqLn-qkaN4AIWGYy-148">
          <mxGeometry x="80" width="110" height="40" as="geometry">
            <mxRectangle width="110" height="40" as="alternateBounds" />
          </mxGeometry>
        </mxCell>
        <mxCell id="qSncfqLn-qkaN4AIWGYy-152" value="M_id" style="shape=partialRectangle;html=1;whiteSpace=wrap;connectable=0;strokeColor=inherit;overflow=hidden;fillColor=none;top=0;left=0;bottom=0;right=0;pointerEvents=1;fontSize=15;" vertex="1" parent="qSncfqLn-qkaN4AIWGYy-148">
          <mxGeometry x="190" width="87" height="40" as="geometry">
            <mxRectangle width="87" height="40" as="alternateBounds" />
          </mxGeometry>
        </mxCell>
        <mxCell id="qSncfqLn-qkaN4AIWGYy-160" value="Std_id" style="shape=partialRectangle;html=1;whiteSpace=wrap;connectable=0;strokeColor=inherit;overflow=hidden;fillColor=none;top=0;left=0;bottom=0;right=0;pointerEvents=1;fontSize=15;" vertex="1" parent="qSncfqLn-qkaN4AIWGYy-148">
          <mxGeometry x="277" width="87" height="40" as="geometry">
            <mxRectangle width="87" height="40" as="alternateBounds" />
          </mxGeometry>
        </mxCell>
        <mxCell id="qSncfqLn-qkaN4AIWGYy-153" value="&lt;font style=&quot;font-size: 15px;&quot;&gt;Crs_id&lt;/font&gt;" style="shape=partialRectangle;html=1;whiteSpace=wrap;connectable=0;strokeColor=inherit;overflow=hidden;fillColor=none;top=0;left=0;bottom=0;right=0;pointerEvents=1;" vertex="1" parent="qSncfqLn-qkaN4AIWGYy-148">
          <mxGeometry x="364" width="87" height="40" as="geometry">
            <mxRectangle width="87" height="40" as="alternateBounds" />
          </mxGeometry>
        </mxCell>
        <mxCell id="qSncfqLn-qkaN4AIWGYy-155" value="" style="line;strokeWidth=1;html=1;" vertex="1" parent="1">
          <mxGeometry x="1195" y="255" width="40" height="10" as="geometry" />
        </mxCell>
        <mxCell id="qSncfqLn-qkaN4AIWGYy-158" value="" style="line;strokeWidth=1;html=1;" vertex="1" parent="1">
          <mxGeometry x="1565" y="255" width="37" height="10" as="geometry" />
        </mxCell>
        <mxCell id="qSncfqLn-qkaN4AIWGYy-159" value="" style="line;strokeWidth=1;html=1;" vertex="1" parent="1">
          <mxGeometry x="1475" y="255" width="40" height="10" as="geometry" />
        </mxCell>
        <mxCell id="qSncfqLn-qkaN4AIWGYy-162" value="" style="shape=table;startSize=0;container=1;collapsible=0;childLayout=tableLayout;strokeColor=#3399FF;" vertex="1" parent="1">
          <mxGeometry x="1175" y="-150" width="450" height="40" as="geometry" />
        </mxCell>
        <mxCell id="qSncfqLn-qkaN4AIWGYy-163" value="" style="shape=tableRow;horizontal=0;startSize=0;swimlaneHead=0;swimlaneBody=0;strokeColor=inherit;top=0;left=0;bottom=0;right=0;collapsible=0;dropTarget=0;fillColor=none;points=[[0,0.5],[1,0.5]];portConstraint=eastwest;" vertex="1" parent="qSncfqLn-qkaN4AIWGYy-162">
          <mxGeometry width="450" height="40" as="geometry" />
        </mxCell>
        <mxCell id="qSncfqLn-qkaN4AIWGYy-164" value="A_id" style="shape=partialRectangle;html=1;whiteSpace=wrap;connectable=0;strokeColor=inherit;overflow=hidden;fillColor=none;top=0;left=0;bottom=0;right=0;pointerEvents=1;fontSize=15;" vertex="1" parent="qSncfqLn-qkaN4AIWGYy-163">
          <mxGeometry width="80" height="40" as="geometry">
            <mxRectangle width="80" height="40" as="alternateBounds" />
          </mxGeometry>
        </mxCell>
        <mxCell id="qSncfqLn-qkaN4AIWGYy-165" value="Status" style="shape=partialRectangle;html=1;whiteSpace=wrap;connectable=0;strokeColor=inherit;overflow=hidden;fillColor=none;top=0;left=0;bottom=0;right=0;pointerEvents=1;fontSize=15;" vertex="1" parent="qSncfqLn-qkaN4AIWGYy-163">
          <mxGeometry x="80" width="110" height="40" as="geometry">
            <mxRectangle width="110" height="40" as="alternateBounds" />
          </mxGeometry>
        </mxCell>
        <mxCell id="qSncfqLn-qkaN4AIWGYy-166" value="Date" style="shape=partialRectangle;html=1;whiteSpace=wrap;connectable=0;strokeColor=inherit;overflow=hidden;fillColor=none;top=0;left=0;bottom=0;right=0;pointerEvents=1;fontSize=15;" vertex="1" parent="qSncfqLn-qkaN4AIWGYy-163">
          <mxGeometry x="190" width="87" height="40" as="geometry">
            <mxRectangle width="87" height="40" as="alternateBounds" />
          </mxGeometry>
        </mxCell>
        <mxCell id="qSncfqLn-qkaN4AIWGYy-167" value="Std_id" style="shape=partialRectangle;html=1;whiteSpace=wrap;connectable=0;strokeColor=inherit;overflow=hidden;fillColor=none;top=0;left=0;bottom=0;right=0;pointerEvents=1;fontSize=15;" vertex="1" parent="qSncfqLn-qkaN4AIWGYy-163">
          <mxGeometry x="277" width="87" height="40" as="geometry">
            <mxRectangle width="87" height="40" as="alternateBounds" />
          </mxGeometry>
        </mxCell>
        <mxCell id="qSncfqLn-qkaN4AIWGYy-168" value="&lt;font style=&quot;font-size: 15px;&quot;&gt;Crs_id&lt;/font&gt;" style="shape=partialRectangle;html=1;whiteSpace=wrap;connectable=0;strokeColor=inherit;overflow=hidden;fillColor=none;top=0;left=0;bottom=0;right=0;pointerEvents=1;" vertex="1" parent="qSncfqLn-qkaN4AIWGYy-163">
          <mxGeometry x="364" width="86" height="40" as="geometry">
            <mxRectangle width="86" height="40" as="alternateBounds" />
          </mxGeometry>
        </mxCell>
        <mxCell id="qSncfqLn-qkaN4AIWGYy-170" value="" style="line;strokeWidth=1;html=1;" vertex="1" parent="1">
          <mxGeometry x="1195" y="-120" width="40" height="10" as="geometry" />
        </mxCell>
        <mxCell id="qSncfqLn-qkaN4AIWGYy-171" value="" style="line;strokeWidth=1;html=1;" vertex="1" parent="1">
          <mxGeometry x="1565" y="-120" width="37" height="10" as="geometry" />
        </mxCell>
        <mxCell id="qSncfqLn-qkaN4AIWGYy-172" value="" style="line;strokeWidth=1;html=1;" vertex="1" parent="1">
          <mxGeometry x="1475" y="-120" width="40" height="10" as="geometry" />
        </mxCell>
        <mxCell id="qSncfqLn-qkaN4AIWGYy-173" value="" style="endArrow=classic;html=1;rounded=0;exitX=0.9;exitY=1.01;exitDx=0;exitDy=0;exitPerimeter=0;entryX=0.769;entryY=1.013;entryDx=0;entryDy=0;entryPerimeter=0;" edge="1" parent="1" source="qSncfqLn-qkaN4AIWGYy-38" target="qSncfqLn-qkaN4AIWGYy-56">
          <mxGeometry width="50" height="50" relative="1" as="geometry">
            <mxPoint x="2215" y="-480" as="sourcePoint" />
            <mxPoint x="2055" y="-680" as="targetPoint" />
            <Array as="points">
              <mxPoint x="2215" y="-450" />
              <mxPoint x="2335" y="-450" />
              <mxPoint x="2335" y="-590" />
              <mxPoint x="2055" y="-590" />
            </Array>
          </mxGeometry>
        </mxCell>
        <mxCell id="qSncfqLn-qkaN4AIWGYy-174" value="" style="line;strokeWidth=1;html=1;" vertex="1" parent="1">
          <mxGeometry x="2045" y="-695" width="50" height="10" as="geometry" />
        </mxCell>
        <mxCell id="qSncfqLn-qkaN4AIWGYy-175" value="" style="endArrow=classic;html=1;rounded=0;entryX=0.151;entryY=1.028;entryDx=0;entryDy=0;entryPerimeter=0;exitX=0.462;exitY=1.022;exitDx=0;exitDy=0;exitPerimeter=0;" edge="1" parent="1" source="qSncfqLn-qkaN4AIWGYy-56" target="qSncfqLn-qkaN4AIWGYy-39">
          <mxGeometry width="50" height="50" relative="1" as="geometry">
            <mxPoint x="1975" y="-680" as="sourcePoint" />
            <mxPoint x="1915" y="-480" as="targetPoint" />
            <Array as="points">
              <mxPoint x="1975" y="-630" />
              <mxPoint x="1815" y="-630" />
              <mxPoint x="1815" y="-450" />
              <mxPoint x="1915" y="-450" />
            </Array>
          </mxGeometry>
        </mxCell>
        <mxCell id="qSncfqLn-qkaN4AIWGYy-177" value="" style="line;strokeWidth=1;html=1;" vertex="1" parent="1">
          <mxGeometry x="2265" y="-295" width="50" height="10" as="geometry" />
        </mxCell>
        <mxCell id="qSncfqLn-qkaN4AIWGYy-178" value="" style="endArrow=classic;html=1;rounded=0;exitX=0.794;exitY=0.999;exitDx=0;exitDy=0;exitPerimeter=0;entryX=0.846;entryY=1.016;entryDx=0;entryDy=0;entryPerimeter=0;" edge="1" parent="1" source="qSncfqLn-qkaN4AIWGYy-49" target="qSncfqLn-qkaN4AIWGYy-56">
          <mxGeometry width="50" height="50" relative="1" as="geometry">
            <mxPoint x="2155" y="-350" as="sourcePoint" />
            <mxPoint x="2075" y="-680" as="targetPoint" />
            <Array as="points">
              <mxPoint x="2215" y="-240" />
              <mxPoint x="2395" y="-240" />
              <mxPoint x="2395" y="-610" />
              <mxPoint x="2075" y="-610" />
            </Array>
          </mxGeometry>
        </mxCell>
        <mxCell id="qSncfqLn-qkaN4AIWGYy-179" value="" style="endArrow=classic;html=1;rounded=0;entryX=0.92;entryY=1.007;entryDx=0;entryDy=0;entryPerimeter=0;" edge="1" parent="1" target="qSncfqLn-qkaN4AIWGYy-56">
          <mxGeometry width="50" height="50" relative="1" as="geometry">
            <mxPoint x="2295" y="-20" as="sourcePoint" />
            <mxPoint x="2245" y="-220" as="targetPoint" />
            <Array as="points">
              <mxPoint x="2295" y="50" />
              <mxPoint x="2477" y="50" />
              <mxPoint x="2475" y="-630" />
              <mxPoint x="2095" y="-630" />
            </Array>
          </mxGeometry>
        </mxCell>
        <mxCell id="qSncfqLn-qkaN4AIWGYy-180" value="" style="endArrow=classic;html=1;rounded=0;exitX=0.941;exitY=1.005;exitDx=0;exitDy=0;exitPerimeter=0;entryX=0.277;entryY=1.025;entryDx=0;entryDy=0;entryPerimeter=0;" edge="1" parent="1" source="qSncfqLn-qkaN4AIWGYy-16" target="qSncfqLn-qkaN4AIWGYy-48">
          <mxGeometry width="50" height="50" relative="1" as="geometry">
            <mxPoint x="2195" y="-150" as="sourcePoint" />
            <mxPoint x="1935" y="-280" as="targetPoint" />
            <Array as="points">
              <mxPoint x="2358" y="20" />
              <mxPoint x="2425" y="20" />
              <mxPoint x="2425" y="-70" />
              <mxPoint x="2425" y="-190" />
              <mxPoint x="1935" y="-190" />
            </Array>
          </mxGeometry>
        </mxCell>
        <mxCell id="qSncfqLn-qkaN4AIWGYy-181" value="" style="endArrow=classic;html=1;rounded=0;exitX=0.942;exitY=1.005;exitDx=0;exitDy=0;exitPerimeter=0;entryX=0.198;entryY=1.041;entryDx=0;entryDy=0;entryPerimeter=0;" edge="1" parent="1" source="qSncfqLn-qkaN4AIWGYy-49" target="qSncfqLn-qkaN4AIWGYy-39">
          <mxGeometry width="50" height="50" relative="1" as="geometry">
            <mxPoint x="2175" y="-340" as="sourcePoint" />
            <mxPoint x="2225" y="-390" as="targetPoint" />
            <Array as="points">
              <mxPoint x="2295" y="-270" />
              <mxPoint x="2355" y="-270" />
              <mxPoint x="2355" y="-400" />
              <mxPoint x="1934" y="-400" />
            </Array>
          </mxGeometry>
        </mxCell>
        <mxCell id="qSncfqLn-qkaN4AIWGYy-182" value="" style="endArrow=classic;html=1;rounded=0;exitX=0.919;exitY=1;exitDx=0;exitDy=0;exitPerimeter=0;entryX=0.103;entryY=1.019;entryDx=0;entryDy=0;entryPerimeter=0;" edge="1" parent="1" source="qSncfqLn-qkaN4AIWGYy-111" target="qSncfqLn-qkaN4AIWGYy-15">
          <mxGeometry width="50" height="50" relative="1" as="geometry">
            <mxPoint x="815" y="50" as="sourcePoint" />
            <mxPoint x="1885" y="-80" as="targetPoint" />
            <Array as="points">
              <mxPoint x="775" y="40" />
              <mxPoint x="875" y="40" />
              <mxPoint x="875" y="670" />
              <mxPoint x="1875" y="670" />
            </Array>
          </mxGeometry>
        </mxCell>
        <mxCell id="qSncfqLn-qkaN4AIWGYy-183" value="" style="endArrow=classic;html=1;rounded=0;exitX=0.917;exitY=1.008;exitDx=0;exitDy=0;exitPerimeter=0;entryX=0.138;entryY=1.013;entryDx=0;entryDy=0;entryPerimeter=0;" edge="1" parent="1" source="qSncfqLn-qkaN4AIWGYy-92" target="qSncfqLn-qkaN4AIWGYy-16">
          <mxGeometry width="50" height="50" relative="1" as="geometry">
            <mxPoint x="1005" y="160" as="sourcePoint" />
            <mxPoint x="1895" y="-80" as="targetPoint" />
            <Array as="points">
              <mxPoint x="773" y="250" />
              <mxPoint x="835" y="250" />
              <mxPoint x="835" y="700" />
              <mxPoint x="1895" y="700" />
            </Array>
          </mxGeometry>
        </mxCell>
        <mxCell id="qSncfqLn-qkaN4AIWGYy-184" value="" style="endArrow=classic;html=1;rounded=0;exitX=0.901;exitY=1.029;exitDx=0;exitDy=0;exitPerimeter=0;entryX=0.198;entryY=1.005;entryDx=0;entryDy=0;entryPerimeter=0;" edge="1" parent="1" source="qSncfqLn-qkaN4AIWGYy-70" target="qSncfqLn-qkaN4AIWGYy-15">
          <mxGeometry width="50" height="50" relative="1" as="geometry">
            <mxPoint x="705" y="550" as="sourcePoint" />
            <mxPoint x="1915" y="-80" as="targetPoint" />
            <Array as="points">
              <mxPoint x="704" y="770" />
              <mxPoint x="1933" y="770" />
            </Array>
          </mxGeometry>
        </mxCell>
        <mxCell id="qSncfqLn-qkaN4AIWGYy-185" value="" style="endArrow=classic;html=1;rounded=0;exitX=0.871;exitY=1.006;exitDx=0;exitDy=0;exitPerimeter=0;entryX=0.167;entryY=0.997;entryDx=0;entryDy=0;entryPerimeter=0;" edge="1" parent="1" source="qSncfqLn-qkaN4AIWGYy-82" target="qSncfqLn-qkaN4AIWGYy-15">
          <mxGeometry width="50" height="50" relative="1" as="geometry">
            <mxPoint x="1215" y="140" as="sourcePoint" />
            <mxPoint x="1905" y="-80" as="targetPoint" />
            <Array as="points">
              <mxPoint x="695" y="450" />
              <mxPoint x="775" y="450" />
              <mxPoint x="775" y="730" />
              <mxPoint x="1915" y="730" />
            </Array>
          </mxGeometry>
        </mxCell>
        <mxCell id="qSncfqLn-qkaN4AIWGYy-186" value="" style="endArrow=classic;html=1;rounded=0;exitX=0.955;exitY=1.015;exitDx=0;exitDy=0;exitPerimeter=0;entryX=0.069;entryY=1.013;entryDx=0;entryDy=0;entryPerimeter=0;" edge="1" parent="1" source="qSncfqLn-qkaN4AIWGYy-135" target="qSncfqLn-qkaN4AIWGYy-15">
          <mxGeometry width="50" height="50" relative="1" as="geometry">
            <mxPoint x="1535" y="330" as="sourcePoint" />
            <mxPoint x="1585" y="280" as="targetPoint" />
            <Array as="points">
              <mxPoint x="1615" y="530" />
              <mxPoint x="1855" y="530" />
            </Array>
          </mxGeometry>
        </mxCell>
        <mxCell id="qSncfqLn-qkaN4AIWGYy-187" value="" style="endArrow=classic;html=1;rounded=0;exitX=0.71;exitY=1.009;exitDx=0;exitDy=0;exitPerimeter=0;entryX=0.039;entryY=1.015;entryDx=0;entryDy=0;entryPerimeter=0;" edge="1" parent="1" source="qSncfqLn-qkaN4AIWGYy-148" target="qSncfqLn-qkaN4AIWGYy-16">
          <mxGeometry width="50" height="50" relative="1" as="geometry">
            <mxPoint x="1855" y="120" as="sourcePoint" />
            <mxPoint x="1905" y="70" as="targetPoint" />
            <Array as="points">
              <mxPoint x="1495" y="320" />
              <mxPoint x="1835" y="320" />
            </Array>
          </mxGeometry>
        </mxCell>
        <mxCell id="qSncfqLn-qkaN4AIWGYy-188" value="" style="endArrow=classic;html=1;rounded=0;entryX=0.003;entryY=0.945;entryDx=0;entryDy=0;entryPerimeter=0;exitX=0.771;exitY=1.005;exitDx=0;exitDy=0;exitPerimeter=0;" edge="1" parent="1" source="qSncfqLn-qkaN4AIWGYy-122" target="qSncfqLn-qkaN4AIWGYy-16">
          <mxGeometry width="50" height="50" relative="1" as="geometry">
            <mxPoint x="1365" y="80" as="sourcePoint" />
            <mxPoint x="1825" y="-80" as="targetPoint" />
            <Array as="points">
              <mxPoint x="1487" y="130" />
              <mxPoint x="1815" y="130" />
            </Array>
          </mxGeometry>
        </mxCell>
        <mxCell id="qSncfqLn-qkaN4AIWGYy-191" value="" style="endArrow=classic;html=1;rounded=0;entryX=0.111;entryY=1.049;entryDx=0;entryDy=0;entryPerimeter=0;exitX=0.338;exitY=0.983;exitDx=0;exitDy=0;exitPerimeter=0;" edge="1" parent="1" source="qSncfqLn-qkaN4AIWGYy-111" target="qSncfqLn-qkaN4AIWGYy-48">
          <mxGeometry width="50" height="50" relative="1" as="geometry">
            <mxPoint x="555" y="-46" as="sourcePoint" />
            <mxPoint x="705" y="450" as="targetPoint" />
            <Array as="points">
              <mxPoint x="553" y="-10" />
              <mxPoint x="375" y="-10" />
              <mxPoint x="375" y="-230" />
              <mxPoint x="1845" y="-230" />
            </Array>
          </mxGeometry>
        </mxCell>
        <mxCell id="qSncfqLn-qkaN4AIWGYy-192" value="" style="endArrow=classic;html=1;rounded=0;entryX=0.074;entryY=1.04;entryDx=0;entryDy=0;entryPerimeter=0;exitX=0.29;exitY=1.011;exitDx=0;exitDy=0;exitPerimeter=0;" edge="1" parent="1" target="qSncfqLn-qkaN4AIWGYy-49">
          <mxGeometry width="50" height="50" relative="1" as="geometry">
            <mxPoint x="535.1999999999999" y="153.94000000000005" as="sourcePoint" />
            <mxPoint x="1894.996" y="-283.5" as="targetPoint" />
            <Array as="points">
              <mxPoint x="535" y="190" />
              <mxPoint x="335" y="190" />
              <mxPoint x="335" y="-250" />
              <mxPoint x="1825" y="-250" />
            </Array>
          </mxGeometry>
        </mxCell>
        <mxCell id="qSncfqLn-qkaN4AIWGYy-193" value="" style="endArrow=classic;html=1;rounded=0;exitX=0.355;exitY=1.017;exitDx=0;exitDy=0;exitPerimeter=0;entryX=0.038;entryY=1.014;entryDx=0;entryDy=0;entryPerimeter=0;" edge="1" parent="1" source="qSncfqLn-qkaN4AIWGYy-81" target="qSncfqLn-qkaN4AIWGYy-49">
          <mxGeometry width="50" height="50" relative="1" as="geometry">
            <mxPoint x="535" y="360" as="sourcePoint" />
            <mxPoint x="685" y="-130" as="targetPoint" />
            <Array as="points">
              <mxPoint x="535" y="390" />
              <mxPoint x="295" y="390" />
              <mxPoint x="295" y="-270" />
              <mxPoint x="1805" y="-270" />
            </Array>
          </mxGeometry>
        </mxCell>
        <mxCell id="qSncfqLn-qkaN4AIWGYy-194" value="" style="endArrow=classic;html=1;rounded=0;exitX=0.431;exitY=1.025;exitDx=0;exitDy=0;exitPerimeter=0;entryX=0;entryY=0.625;entryDx=0;entryDy=0;entryPerimeter=0;" edge="1" parent="1" source="qSncfqLn-qkaN4AIWGYy-70" target="qSncfqLn-qkaN4AIWGYy-49">
          <mxGeometry width="50" height="50" relative="1" as="geometry">
            <mxPoint x="1125" y="380" as="sourcePoint" />
            <mxPoint x="1175" y="330" as="targetPoint" />
            <Array as="points">
              <mxPoint x="559" y="590" />
              <mxPoint x="255" y="590" />
              <mxPoint x="255" y="-300" />
            </Array>
          </mxGeometry>
        </mxCell>
        <mxCell id="qSncfqLn-qkaN4AIWGYy-195" value="" style="endArrow=classic;html=1;rounded=0;exitX=0.26;exitY=1.011;exitDx=0;exitDy=0;exitPerimeter=0;" edge="1" parent="1" source="qSncfqLn-qkaN4AIWGYy-135">
          <mxGeometry width="50" height="50" relative="1" as="geometry">
            <mxPoint x="1315" y="380" as="sourcePoint" />
            <mxPoint x="1095" y="90" as="targetPoint" />
            <Array as="points">
              <mxPoint x="1295" y="530" />
              <mxPoint x="1096" y="530" />
            </Array>
          </mxGeometry>
        </mxCell>
        <mxCell id="qSncfqLn-qkaN4AIWGYy-196" value="" style="endArrow=classic;html=1;rounded=0;exitX=1;exitY=0.5;exitDx=0;exitDy=0;entryX=0.147;entryY=1.017;entryDx=0;entryDy=0;entryPerimeter=0;" edge="1" parent="1" source="qSncfqLn-qkaN4AIWGYy-163" target="qSncfqLn-qkaN4AIWGYy-48">
          <mxGeometry width="50" height="50" relative="1" as="geometry">
            <mxPoint x="1645" y="30" as="sourcePoint" />
            <mxPoint x="1695" y="-20" as="targetPoint" />
            <Array as="points">
              <mxPoint x="1655" y="-130" />
              <mxPoint x="1655" y="-220" />
              <mxPoint x="1865" y="-220" />
              <mxPoint x="1865" y="-230" />
            </Array>
          </mxGeometry>
        </mxCell>
        <mxCell id="qSncfqLn-qkaN4AIWGYy-197" value="" style="endArrow=classic;html=1;rounded=0;exitX=1.001;exitY=0.411;exitDx=0;exitDy=0;exitPerimeter=0;entryX=0.186;entryY=1.031;entryDx=0;entryDy=0;entryPerimeter=0;" edge="1" parent="1" source="qSncfqLn-qkaN4AIWGYy-122" target="qSncfqLn-qkaN4AIWGYy-48">
          <mxGeometry width="50" height="50" relative="1" as="geometry">
            <mxPoint x="1555" y="-30" as="sourcePoint" />
            <mxPoint x="1605" y="-80" as="targetPoint" />
            <Array as="points">
              <mxPoint x="1655" y="66" />
              <mxPoint x="1695" y="66" />
              <mxPoint x="1695" y="-200" />
              <mxPoint x="1885" y="-200" />
            </Array>
          </mxGeometry>
        </mxCell>
        <mxCell id="qSncfqLn-qkaN4AIWGYy-198" value="" style="endArrow=classic;html=1;rounded=0;exitX=1;exitY=0.5;exitDx=0;exitDy=0;entryX=0.225;entryY=1.027;entryDx=0;entryDy=0;entryPerimeter=0;jumpStyle=arc;jumpSize=13;" edge="1" parent="1" source="qSncfqLn-qkaN4AIWGYy-148" target="qSncfqLn-qkaN4AIWGYy-48">
          <mxGeometry width="50" height="50" relative="1" as="geometry">
            <mxPoint x="1655" y="90" as="sourcePoint" />
            <mxPoint x="1915" y="-280" as="targetPoint" />
            <Array as="points">
              <mxPoint x="1725" y="245" />
              <mxPoint x="1725" y="-170" />
              <mxPoint x="1907" y="-170" />
            </Array>
          </mxGeometry>
        </mxCell>
        <mxCell id="qSncfqLn-qkaN4AIWGYy-199" value="" style="endArrow=classic;html=1;rounded=0;entryX=0.002;entryY=0.645;entryDx=0;entryDy=0;entryPerimeter=0;exitX=0.709;exitY=1.046;exitDx=0;exitDy=0;exitPerimeter=0;jumpStyle=arc;jumpSize=14;" edge="1" parent="1" source="qSncfqLn-qkaN4AIWGYy-163" target="qSncfqLn-qkaN4AIWGYy-16">
          <mxGeometry width="50" height="50" relative="1" as="geometry">
            <mxPoint x="1495" y="-120" as="sourcePoint" />
            <mxPoint x="1725" y="-10" as="targetPoint" />
            <Array as="points">
              <mxPoint x="1495" y="-38" />
            </Array>
          </mxGeometry>
        </mxCell>
        <mxCell id="qSncfqLn-qkaN4AIWGYy-240" value="&lt;font style=&quot;font-size: 18px;&quot;&gt;MARK&lt;/font&gt;" style="rounded=0;whiteSpace=wrap;html=1;fillColor=#dae8fc;strokeColor=#6c8ebf;" vertex="1" parent="1">
          <mxGeometry x="1055" y="18" width="560" height="32" as="geometry" />
        </mxCell>
        <mxCell id="qSncfqLn-qkaN4AIWGYy-241" value="" style="rounded=0;whiteSpace=wrap;html=1;fillColor=#dae8fc;strokeColor=#6c8ebf;" vertex="1" parent="1">
          <mxGeometry x="1175" y="-180" width="450" height="30" as="geometry" />
        </mxCell>
        <mxCell id="qSncfqLn-qkaN4AIWGYy-242" value="&lt;font style=&quot;font-size: 18px; font-weight: normal;&quot;&gt;ATTENDANCE&lt;/font&gt;" style="text;strokeColor=none;fillColor=none;html=1;fontSize=24;fontStyle=1;verticalAlign=middle;align=center;" vertex="1" parent="1">
          <mxGeometry x="1328" y="-185" width="100" height="40" as="geometry" />
        </mxCell>
        <mxCell id="qSncfqLn-qkaN4AIWGYy-244" value="&lt;font style=&quot;font-size: 18px;&quot;&gt;ELIGIBILITY&lt;/font&gt;" style="rounded=0;whiteSpace=wrap;html=1;fillColor=#dae8fc;strokeColor=#6c8ebf;" vertex="1" parent="1">
          <mxGeometry x="1175" y="189" width="451" height="36" as="geometry" />
        </mxCell>
        <mxCell id="qSncfqLn-qkaN4AIWGYy-245" value="&lt;font style=&quot;font-size: 18px;&quot;&gt;STUDENT_GPA&lt;/font&gt;" style="rounded=0;whiteSpace=wrap;html=1;fillColor=#dae8fc;strokeColor=#6c8ebf;" vertex="1" parent="1">
          <mxGeometry x="1175" y="409" width="460" height="41" as="geometry" />
        </mxCell>
        <mxCell id="qSncfqLn-qkaN4AIWGYy-247" value="&lt;font style=&quot;font-size: 18px;&quot;&gt;STUDENT&lt;/font&gt;" style="rounded=0;whiteSpace=wrap;html=1;fillColor=#dae8fc;strokeColor=#6c8ebf;" vertex="1" parent="1">
          <mxGeometry x="1812" y="-101" width="580" height="37" as="geometry" />
        </mxCell>
        <mxCell id="qSncfqLn-qkaN4AIWGYy-248" value="&lt;font style=&quot;font-size: 18px;&quot;&gt;COURSE&lt;/font&gt;" style="rounded=0;whiteSpace=wrap;html=1;fillColor=#dae8fc;strokeColor=#6c8ebf;" vertex="1" parent="1">
          <mxGeometry x="1785" y="-359" width="541" height="34" as="geometry" />
        </mxCell>
        <mxCell id="qSncfqLn-qkaN4AIWGYy-249" value="&lt;font style=&quot;font-size: 18px;&quot;&gt;LECTURE&lt;/font&gt;" style="rounded=0;whiteSpace=wrap;html=1;fillColor=#dae8fc;strokeColor=#6c8ebf;" vertex="1" parent="1">
          <mxGeometry x="1855" y="-565" width="400" height="40" as="geometry" />
        </mxCell>
        <mxCell id="qSncfqLn-qkaN4AIWGYy-250" value="&lt;font style=&quot;font-size: 18px;&quot;&gt;DEPARTMENT&lt;/font&gt;" style="rounded=0;whiteSpace=wrap;html=1;fillColor=#dae8fc;strokeColor=#6c8ebf;" vertex="1" parent="1">
          <mxGeometry x="1855" y="-768" width="260" height="43" as="geometry" />
        </mxCell>
        <mxCell id="qSncfqLn-qkaN4AIWGYy-251" value="&lt;font style=&quot;font-size: 18px;&quot;&gt;END&lt;/font&gt;" style="rounded=0;whiteSpace=wrap;html=1;fillColor=#dae8fc;strokeColor=#6c8ebf;" vertex="1" parent="1">
          <mxGeometry x="425" y="478" width="310" height="37" as="geometry" />
        </mxCell>
        <mxCell id="qSncfqLn-qkaN4AIWGYy-253" value="&lt;font style=&quot;font-size: 18px;&quot;&gt;MID&lt;/font&gt;" style="rounded=0;whiteSpace=wrap;html=1;fillColor=#dae8fc;strokeColor=#6c8ebf;" vertex="1" parent="1">
          <mxGeometry x="425" y="277" width="310" height="38" as="geometry" />
        </mxCell>
        <mxCell id="qSncfqLn-qkaN4AIWGYy-254" value="&lt;font style=&quot;font-size: 18px;&quot;&gt;QUIZ&lt;/font&gt;" style="rounded=0;whiteSpace=wrap;html=1;fillColor=#dae8fc;strokeColor=#6c8ebf;" vertex="1" parent="1">
          <mxGeometry x="425" y="79" width="380" height="36" as="geometry" />
        </mxCell>
        <mxCell id="qSncfqLn-qkaN4AIWGYy-255" value="&lt;font style=&quot;font-size: 18px;&quot;&gt;ASSIGNMENT&lt;/font&gt;" style="rounded=0;whiteSpace=wrap;html=1;fillColor=#dae8fc;strokeColor=#6c8ebf;" vertex="1" parent="1">
          <mxGeometry x="425" y="-127" width="380" height="42" as="geometry" />
        </mxCell>
        <mxCell id="qSncfqLn-qkaN4AIWGYy-256" value="" style="endArrow=none;html=1;rounded=0;" edge="1" parent="1">
          <mxGeometry width="50" height="50" relative="1" as="geometry">
            <mxPoint x="17" y="124" as="sourcePoint" />
            <mxPoint x="17" y="122" as="targetPoint" />
          </mxGeometry>
        </mxCell>
        <mxCell id="qSncfqLn-qkaN4AIWGYy-258" value="" style="rounded=0;whiteSpace=wrap;html=1;" vertex="1" parent="1">
          <mxGeometry x="2749" y="209" width="3" height="1" as="geometry" />
        </mxCell>
        <mxCell id="qSncfqLn-qkaN4AIWGYy-259" value="" style="rounded=0;whiteSpace=wrap;html=1;" vertex="1" parent="1">
          <mxGeometry x="1494.5" y="-978" width="1" height="2" as="geometry" />
        </mxCell>
        <mxCell id="qSncfqLn-qkaN4AIWGYy-260" value="" style="rounded=0;whiteSpace=wrap;html=1;" vertex="1" parent="1">
          <mxGeometry x="1455" y="979" width="4" height="1" as="geometry" />
        </mxCell>
      </root>
    </mxGraphModel>
  </diagram>
</mxfile>
